<svg id="Layer_1" data-name="Layer 1" xmlns="http://www.w3.org/2000/svg" viewBox="0 0 699.09 147.4"><defs><style>.cls-1,.cls-2,.cls-3,.cls-4,.cls-5,.cls-6,.cls-7{fill:none;stroke:#000;stroke-linecap:round;}.cls-1,.cls-3,.cls-7{stroke-linejoin:round;}.cls-1,.cls-2{stroke-width:4.04px;}.cls-3{stroke-width:4.02px;}.cls-4{stroke-width:3.99px;}.cls-5,.cls-7{stroke-width:4px;}.cls-6{stroke-width:4.01px;}</style></defs><title>Fridge Logo</title><path id="F1" class="cls-1" d="M23.77,2.13H12.9A10.89,10.89,0,0,0,2,13V134.59a10.43,10.43,0,0,0,10,10.84h.42a12.25,12.25,0,0,0,12-10.8V23.89l66.23-.09c6,0,9.6-4.87,9.6-10.87S96.69,2.05,90.68,2.05l-66.35.08Z"/><path id="F2" class="cls-2" d="M34.61,71.8H82.85c6,0,9.6-4.87,9.6-10.88S88.86,50,82.85,50H34.61"/><path id="F4" class="cls-2" d="M154.86,24.6c.68-.06,28.83,0,29.53,0a25.55,25.55,0,0,1,1.81,51c-.63.05-30.65,0-31.29,0"/><path id="F3" class="cls-2" d="M132.56,2.12c6.08,0,11,4.94,11.64,11L144,134.24c-.66,6.08-5.6,11-11.68,11h0c-6.08,0-11-5-11-12.33l.24-121.11c0-3.43,2.54-6.93,6.22-8.63a11.06,11.06,0,0,1,4.8-1.06Z"/><path id="F5" class="cls-3" d="M155,96.16h24a26.53,26.53,0,0,1,22,11.53l-.22-.3L220,138.91c3.82,6.27,10.57,7.9,15.74,4.74h0c5.16-3.15,6.79-9.9,4.19-15.4L214.66,86.86v-.11c11.13-8.66,17.66-21.52,17.69-36.71a47.39,47.39,0,0,0-47.3-47.48H155.14"/><path id="F6" class="cls-4" d="M283.17,133.44c0,6.5-5,11.78-11.12,11.78h0c-6.14,0-11.11-5.28-11.11-11.78V13.78c0-6.51,5-11.78,11.11-11.78h0c6.14,0,11.12,5.27,11.12,11.78Z"/><path id="F7" class="cls-5" d="M318.24,2.3c6,0,10.84,4.85,11.47,10.84V134.3c-.63,6-5.49,10.84-11.47,10.84h0a10.84,10.84,0,0,1-10.85-10.83h0V13.14A10.84,10.84,0,0,1,318.23,2.3Z"/><path id="F9" class="cls-6" d="M338.27,2.3h22c38.31,1.25,69.62,32.7,69.62,71.31,0,38.79-31.58,70.34-70.13,71.33h-21.5"/><path id="F8" class="cls-6" d="M339.17,24.44c1.54,0,20.39,0,21.81.1a49.15,49.15,0,0,1-1.3,98.16H339.17"/><path id="F11" class="cls-7" d="M569.1,81.17c.09-5.89-3.86-10.73-8.49-10.82H511.19c-5.88,0-9.41,4.76-9.42,10.64s3.5,10.66,9.38,10.67h36.5v44.08c0,5.88,4.75,9.41,10.64,9.42s10.66-3.5,10.67-9.38Z"/><path id="F10" class="cls-7" d="M537.56,121.94c-.62,0-19.49,0-20.12-.07a48.22,48.22,0,0,1-1.09-96.31c2.4-.15,31.29,0,31.8,0h0c5.89,0,10.09-4.52,10.1-10.82v-.63A10.57,10.57,0,0,0,548,3.26h-.36c-1.38,0-28.39-.15-29.73-.11a70.19,70.19,0,0,0,.28,140.29H518l20.09.06"/><path id="F12" class="cls-7" d="M615.72,23.83V122.6h71.82c6,0,9.51,4.82,9.51,10.77s-3.56,11.56-9.51,11.56l-82.76.1a11.88,11.88,0,0,1-11.41-11.4v-121c0-6,6-10.34,12-10.34h80c5.94,0,9.5,4.82,9.5,10.76s-3.56,10.77-9.5,10.77H615.72"/><path id="F13" class="cls-7" d="M625.79,83.34h53.67c6,0,9.51-4.82,9.51-10.77s-3.56-10.77-9.51-10.77H625.79"/></svg>