<?xml version="1.0" encoding="utf-8"?>
<!-- Generator: Adobe Illustrator 22.0.0, SVG Export Plug-In . SVG Version: 6.00 Build 0)  -->
<svg version="1.1" xmlns="http://www.w3.org/2000/svg" xmlns:xlink="http://www.w3.org/1999/xlink" x="0px" y="0px"
	 viewBox="0 0 1000.8 683" style="enable-background:new 0 0 1000.8 683;" xml:space="preserve">
<style type="text/css">
	.st0{fill:none;stroke:#231F20;stroke-width:4;stroke-linecap:round;}
	.st1{fill:none;stroke:#231F20;stroke-width:4;stroke-linecap:round;stroke-linejoin:round;}
</style>
<g id="_x31_00">
	<path id="A1" class="st0" d="M398.1,25.1c-0.9,0-30.1-0.1-31-0.1c-27.6,0-49.9,21.8-49.9,48.7s22.4,48.7,49.9,48.7
		c1.1,0,30.5,0,31.6-0.1c6,0.1,10.9,5.1,10.8,11.1c0,6-5.2,10.5-11.2,10.5c-1,0-29.4,0.1-30.4,0.1c-38.9,0-70.5-31.6-70.5-70.5
		S329,2.9,367.9,2.9l0,0c1.2,0,30.7,0,31.8,0.1"/>
	<path id="A2" class="st0" d="M250.2,311.6c0,6.5-5,11.8-11.1,11.8l0,0c-6.1,0-11.1-5.3-11.1-11.8v-120c0-6.5,5-11.8,11.1-11.8l0,0
		c6.2,0,11.1,5.3,11.1,11.8V311.6z"/>
	<path id="A3" class="st0" d="M998.7,358.2c0,0.6,0.1,94.2,0.1,94.7c0,26-21.1,47.1-47.1,47.1h-1.1c-25.3-0.1-46-20.3-46.8-45.6
		c0-0.6,0-85.2,0-85.8l0.1-0.1c0.5-5.9,5.5-10.5,11.5-10.5l0,0c6,0,10.9,4.9,10.9,10.9c0,0,0.1,82.5,0.2,83
		c1,13.2,12,23.4,25.2,23.4c14,0,25.3-10.1,25.3-24c0-0.7,0-82.3-0.1-82.9"/>
	<path id="A4" class="st0" d="M285.1,323.7c-6.3,1-14.2-3.5-14.2-9.5l0,0c0-6.3,5.2-9.8,11.5-9.8H282c23,0,41.6-19.2,41.6-42.2
		v-71.4c0-6.5,5-11.8,11.1-11.8l0,0c6.2,0,11.1,5.3,11.1,11.8v72.5c-0.1,33.4-27.2,60.4-60.6,60.4"/>
	<path id="A5" class="st1" d="M213,402.1c0.5,0.1,27.4,0.1,27.8,0.1c6,0,10.8-4.8,10.8-10.8s-4.8-10.8-10.8-10.8l0,0
		c-1.5,0-39.6,0.2-38.9,0.1l-0.2,0.2v107.2c0,6.3-5.9,11.5-11.8,11.5l0,0c-6,0-9.8-5.1-9.8-11.5V371.5c0-6.3,3.8-11.5,9.8-11.5l0,0
		h49.8c19.8,0,30.9,13.8,30.9,30.9s-12.8,30.9-29.9,30.9c-0.5,0-27.6,0-28.1,0"/>
</g>
<g id="_x30_-50">
	<path id="A6" class="st1" d="M616.1,24.8v97.1h70.6c5.8,0,9.3,4.7,9.3,10.6c0,5.9-3.5,11.4-9.3,11.4l-81.4,0.1
		c-6.1-0.3-10.9-5.1-11.2-11.2v-119c0-5.8,5.9-10.2,11.8-10.2h78.7c5.8,0,9.3,4.8,9.3,10.6s-3.5,10.6-9.3,10.6L616.1,24.8"/>
	<path id="A7" class="st0" d="M453,3.6c5.9,0,10.7,4.8,11.3,10.7v119.1c-0.6,5.9-5.4,10.6-11.3,10.6l0,0c-5.9,0-10.7-4.8-10.7-10.6
		V14.2C442.4,8.3,447.1,3.6,453,3.6z"/>
	<path id="A8" class="st1" d="M939,121.5c-0.6,0-19.5,0-20.1-0.1c-26.6-0.8-47.5-23-46.7-49.7c0.8-25.1,20.6-45.4,45.6-46.7
		c2.4-0.1,31.3,0,31.8,0l0,0c5.9,0,10.1-4.5,10.1-10.8v-0.6c0.2-5.8-4.4-10.7-10.3-10.8c-0.1,0-0.2,0-0.4,0
		c-1.4,0-28.4-0.2-29.7-0.1c-38.7,1.3-69.1,33.7-67.8,72.5c1.2,37,31,66.7,68.1,67.8h-0.2c0.9,0,19.2,0.1,20.1,0.1"/>
	<path id="A9" class="st1" d="M753.5,3.6h-10.8c-6,0-10.8,4.8-10.8,10.8l0,0v120.5c0,6,4.4,10.7,10.3,10.7l0,0
		c6.1-0.1,11.1-4.7,11.9-10.7V25.2l65.7-0.1c6,0,9.5-4.8,9.5-10.8s-3.6-10.8-9.5-10.8L754,3.6H753.5z"/>
	<path id="A10" class="st1" d="M160.2,260.2h-53.8v51.9c0,6.5-5,11.8-11.1,11.8l0,0c-6.1,0-11.1-5.3-11.1-11.8v-120
		c0-6.5,5-11.8,11.1-11.8l0,0c6.2,0,11.1,5.3,11.1,11.8V238h53.8"/>
	<path id="A11" class="st1" d="M403.8,254.8l73.2-52.4c5.2-3.7,6.5-10.6,3.1-15.5l0,0c-3.5-4.9-10.5-5.8-15.6-2.2l-60.6,43.5v-35.8
		c0-6.3-4.9-11.5-10.8-11.5l0,0c-6,0-10.8,5.1-10.8,11.5v119.1c0,6.3,4.8,11.5,10.8,11.5l0,0c6,0,10.8-5.1,10.8-11.5L403.8,254.8z"
		/>
	<path id="A12" class="st1" d="M676.7,221.5l20.8,32.7c3.2,5.7,10.2,7.9,15.6,4.9l0,0c5.4-3,7.2-10.1,4-15.8c0,0-35.7-55.7-35.8-56
		c-1.5-2.7-4.1-4.7-7.1-5.3l0,0c-6-1.4-12.1,2.7-13.5,9.1l-26.3,117.6c-1.4,6.4,2.3,12.7,8.3,14l0,0c6,1.4,12.1-2.7,13.5-9.1
		L676.7,221.5z"/>
	<path id="A13" class="st1" d="M834.5,186.6l74.8,117.2c4,6.3,3.1,14-2,17.3l0,0c-5.1,3.3-12.5,0.8-16.5-5.5l-54.6-85.5v81.2
		c0,6.4-4.9,11.7-11,11.7l0,0c-6.1,0-11-5.2-11-11.7V192.7c0-6.4,4.9-11.7,11-11.7l0,0C829,181.1,832.6,183.2,834.5,186.6z"/>
	<path id="A14" class="st0" d="M530.6,178.9c5.9,0,10.7,4.8,11.3,10.7v123.6c-0.6,5.9-5.4,10.7-11.3,10.7l0,0
		c-5.9,0-10.7-4.8-10.7-10.7V189.5C519.9,183.6,524.7,178.9,530.6,178.9L530.6,178.9z"/>
	<path id="A15" class="st0" d="M480.8,358.1c6,0,10.9,4.9,11.5,10.9l-0.2,120c-0.7,6-5.5,10.9-11.6,10.9l0,0
		c-6,0-10.9-4.9-10.9-12.2l0.2-120c0-3.4,2.5-6.9,6.2-8.5C477.5,358.5,479.1,358.1,480.8,358.1z"/>
	<path id="A16" class="st0" d="M8,428.8c0-38.5,31.1-70.7,69.5-70.7c38.5,0,69.7,31.2,69.7,69.7s-31.2,69.7-69.7,69.7l0,0
		C39.1,497.5,8,467.3,8,428.8"/>
	<path id="A17" class="st0" d="M184.8,638.1l1.7-3.2c2.8-6.4,10-9.5,16.1-6.8l0,0c6.1,2.7,8.7,10,5.9,16.5l-13.3,27.3
		c0,0-2.5,5.3-6,6.9l0,0c-6,2.9-13.3,0-16.3-6.3L117,555.9c-3-6.3-0.6-13.8,5.3-16.7l0,0c6-2.9,13.3,0,16.3,6.3l45.5,93.9"/>
	<path id="A18" class="st0" d="M819.1,392.7v96.6c-0.7,6.3-5.7,11.3-12,11.3l0,0c-6.3,0-11.3-5.1-11.3-11.3l0,0v-96.6"/>
	<path id="A19" class="st1" d="M320.4,639l21-32.1c3.2-5.8,10.3-8,15.7-4.9l0,0c5.5,3.1,7.2,10.2,4,16l-36.3,57c0,0-3.5,4.3-7.1,5.1
		l0,0c-6.1,1.4-12.2-2.8-13.7-9.2l-26.6-119c-1.4-6.5,2.3-12.8,8.4-14.2l0,0c6.1-1.4,12.2,2.8,13.7,9.2L320.4,639z"/>
	<path id="A20" class="st0" d="M580.5,543.4c4.6-4.6,11.9-4.8,16.2-0.5l0,0c4.4,4.3,4.2,11.6-0.5,16.2L478.1,677.3
		c-4.6,4.6-11.9,4.8-16.2,0.5l0,0c-4.3-4.3-4.1-11.6,0.5-16.2L580.5,543.4z"/>
	<path id="A21" class="st1" d="M786.6,679.1l71.8,0.3c7-0.2,12.5-5.8,12.3-12.4l0,0c-0.2-6.6-6.1-11.8-13.1-11.6l-48.9-0.1
		l61.2-96.7c4.4-5.5,3.8-13.3-1.3-17.4l0,0c-5.2-4.2-12.9-3.1-17.3,2.3l-74.2,115.8c-4.4,5.5-3.8,13.3,1.3,17.4l0,0
		C781.4,679.1,786.6,679.1,786.6,679.1z"/>
	<path id="A22" class="st1" d="M666,417.1c6.1,0.9,10.6,6.1,10.5,12.2l0,0c0.2,6.2-4.6,11.5-10.8,11.7c-0.1,0-0.1,0-0.2,0l-7.5,0.4
		c-22.9-0.3-41.4-18.9-41.4-41.8c0-19.3,13.7-41,32.1-41h53.8c5.9,0.5,10.5,5.4,10.4,11.3l0,0c0,6.3-4.5,11.1-10.9,11.1h0.2
		l-45.2,0.3c-9.8,0.8-17.1,9.5-16.3,19.3c0.8,9.1,8.2,16.1,17.3,16.4L666,417.1z"/>
	<path id="A23" class="st1" d="M702.7,594.2v74.9c0,6.5-5,11.8-11.2,11.8l0,0c-6.2,0-11.2-5.3-11.2-11.8V603l-44.5-45.5
		c-4.6-4.6-4.8-11.9-0.5-16.2l0,0c4.4-4.3,11.6-4.1,16.2,0.5L702.7,594.2z"/>
	<path id="A24" class="st1" d="M106.5,98.8H77.1l-9.1,36c-1.6,6.4-7.9,10.4-13.9,8.8l0,0c-6.1-1.5-9.6-8-8-14.4L76,11.2
		c1.6-6.4,7.9-10.4,13.9-8.8l0,0c6.1,1.5,9.6,8,8,14.4L82.1,76.2h18.7"/>
	<path id="A25" class="st0" d="M395.4,492c-34.9,17.5-77.3,3.4-94.8-31.4s-3.4-77.3,31.4-94.8s77.3-3.4,94.8,31.4
		c9.6,19.2,10,41.7,1,61.2"/>
	<path id="A26" class="st0" d="M381.8,475.1c-25.1,9.8-53.4-2.6-63.2-27.7c-9.8-25.1,2.6-53.4,27.7-63.2
		c25.1-9.8,53.4,2.6,63.2,27.7c2.2,5.7,3.3,11.7,3.3,17.7c0,5-0.8,10.1-2.3,14.9"/>
	<path id="A27" class="st1" d="M199.7,143.6c0.6,0,39,0.1,39.6,0.1c17.2,0,31.2-14,31.2-31.2s-14-31.2-31.2-31.2
		c-0.6,0-44.4-0.3-44.9-0.3V14.4c0-6.4-4.9-11.6-10.9-11.6l0,0c-6,0-10.9,5.2-10.9,11.6v117.7c0,6.4,4.9,11.6,10.9,11.6l0,0
		c0.4,0,19,0,19.4-0.1"/>
	<path id="A28" class="st1" d="M194.6,122.8c-0.7-0.1,43.2,0.1,44.8,0.1c6,0.2,11-4.5,11.2-10.6c0.2-6-4.5-11-10.6-11.2
		c-0.2,0-0.4,0-0.7,0c-0.5,0-44.6,0-45.1,0.1v21.4"/>
</g>
<g id="_x35_0-100">
	<path id="A29" class="st1" d="M626,83.3h52.8c5.8,0,9.3-4.8,9.3-10.6s-3.5-10.6-9.3-10.6H626"/>
	<path id="A30" class="st0" d="M473.5,3.8c1.4,0,20.3,0,21.6,0c37.6,1.2,68.3,32.1,68.3,70c0,38-31,69-68.8,70h-21.1"/>
	<path id="A31" class="st0" d="M474.4,25.5c1.5,0,20,0,21.4,0.1c26.6,1.8,46.7,24.8,44.9,51.4c-1.7,24.6-21.5,43.9-46.1,44.9
		c-0.6,0-19.5,0-20.1,0"/>
	<path id="A32" class="st1" d="M970.5,80.7c0.1-5.9-3.9-10.7-8.5-10.8h-49.4c-5.9,0-9.4,4.8-9.4,10.6s3.5,10.7,9.4,10.7h36.5v44.1
		c0,5.9,4.8,9.4,10.6,9.4s10.7-3.5,10.7-9.4L970.5,80.7z"/>
	<path id="A33" class="st0" d="M764.2,72.7H812c6,0,9.5-4.8,9.5-10.8s-3.6-10.8-9.5-10.8h-47.8"/>
	<path id="A34" class="st0" d="M192.6,311.4c0,6.5-5,11.8-11.1,11.8l0,0c-6.1,0-11.1-5.3-11.1-11.8v-120c0-6.5,5-11.8,11.1-11.8l0,0
		c6.2,0,11.1,5.3,11.1,11.8V311.4z"/>
	<path id="A35" class="st0" d="M416.7,257.6l65.8,45.8c5.2,3.7,6.5,10.6,3.1,15.5l0,0c-3.5,4.9-10.5,5.8-15.6,2.2l-54.8-38.3"/>
	<path id="A36" class="st1" d="M714.1,217.9l20.6-33.2l-0.3,0.4c1.5-1.9,3.7-3.3,6.1-3.8l0,0c6-1.3,12.1,2.8,13.5,9.1l26.3,117.7
		c1.4,6.4-2.3,12.7-8.3,14l0,0c-6,1.4-12.1-2.7-13.5-9.1L738,221.2l-10.3,17"/>
	<path id="A37" class="st0" d="M890.1,255.9v-63.1c0-6.4,4.9-11.7,11-11.7l0,0c6.1,0,11,5.2,11,11.7v97.1"/>
	<path id="A38" class="st0" d="M551.6,300.9h46.3c5.9,0,9.4,4.8,9.4,10.7s-3.5,10.7-9.4,10.7h-46.7"/>
	<path id="A39" class="st0" d="M125.8,428.6c-0.1,26.5-21.6,47.9-48.1,47.8s-47.9-21.6-47.8-48.1c0.1-26.5,21.5-47.8,48-47.9
		C104.4,380.6,125.8,402.1,125.8,428.6z"/>
	<path id="A40" class="st0" d="M196.4,614.1l33.3-68.8c3-6.3,10.3-9.1,16.3-6.3l0,0c6,2.9,8.4,10.3,5.3,16.7l-33.9,70.8"/>
	<path id="A41" class="st0" d="M869.2,369.6c0,6.2-5.1,11.3-11.3,12H757.4c-6.2-0.7-11.3-5.7-11.3-12l0,0c0-6.3,5.1-11.3,11.3-11.3
		l0,0h100.5C864.2,358.3,869.2,363.4,869.2,369.6L869.2,369.6z"/>
	<path id="A42" class="st1" d="M370.8,622.6l11.5,18l20.8-93c1.4-6.5,7.6-10.6,13.7-9.2l0,0c6.1,1.4,9.9,7.7,8.4,14.2l-26.6,119
		c-1.4,6.5-7.6,10.6-13.7,9.2l0,0c-3.5-0.8-7.1-5.1-7.1-5.1l-21.1-33"/>
	<path id="A43" class="st0" d="M506.7,603.7l-44.4-44.4c-4.6-4.6-4.8-11.9-0.5-16.2l0,0c4.3-4.3,11.6-4.1,16.2,0.5l43,43"/>
	<path id="A44" class="st0" d="M552.7,616.9l43.5,44.7c4.6,4.6,4.8,11.9,0.5,16.2l0,0c-4.3,4.3-11.6,4.1-16.2-0.5l-43.8-45"/>
	<path id="A45" class="st0" d="M826.3,563.3l-28.2-0.2c-7,0.2-12.9-5-13.1-11.6l0,0c-0.2-6.6,5.3-12.2,12.3-12.4l45,0.3"/>
	<path id="A46" class="st0" d="M684.9,417.2c23.1,0,41.8,18.7,41.8,41.8l0,0c0,19.3-14.3,40.9-32,40.9c-5,0-60.3,0.2-61.1,0.2
		c-5.9-0.5-10.5-5.5-10.5-11.5l0,0c0-6.3,4.5-11.1,10.9-11.1h0.1l52.2-0.3h-0.2c9.8-0.8,17.1-9.4,16.3-19.3
		c-0.8-9.3-8.5-16.4-17.8-16.4"/>
	<path id="A47" class="st0" d="M709.6,584.3l27.3-27.2c4.6-4.6,4.8-11.9,0.5-16.2l0,0c-4.3-4.4-11.6-4.2-16.2,0.5L693.4,569"/>
	<path id="A48" class="st0" d="M102.1,41.1l24,93.6c1.6,6.4,7.9,10.4,13.9,8.8l0,0c6.1-1.5,9.6-8,8-14.4L114.5,2.3"/>
	<path id="A49" class="st0" d="M502.9,380.4c0.7-0.1,28.6,0,29.2,0c14,0,25.3,11.3,25.4,25.3c0,13.3-10.3,24.4-23.6,25.3
		c-0.6,0-30.4,0-31,0"/>
	<path id="A50" class="st1" d="M502.8,451.5c0.2,0,23.7,0,23.9,0c8.7,0,16.9,4.3,21.9,11.5l-0.2-0.3l19.1,31.4
		c3.8,6.2,10.5,7.8,15.7,4.7l0,0c5.1-3.1,6.8-9.8,4.2-15.3l-25.1-41.2v-0.1c11.1-8.6,17.6-21.4,17.6-36.5c0-26-21-47.2-47-47.2h-1.5
		c-0.6,0-27.7,0-28.3,0"/>
	<path id="A51" class="st0" d="M434.4,481.1c4.4,4.2,4.5,11.2,0.3,15.6l0,0l0,0c-4.2,4.4-11.2,4.5-15.6,0.3l0,0l-41.4-39.9
		c-4.4-4.2-4.5-11.2-0.3-15.6l0,0l0,0c4.2-4.4,11.2-4.5,15.6-0.3l0,0L434.4,481.1z"/>
	<path id="A52" class="st0" d="M204,67.8c0.6,0,21.1,0.1,21.7,0.1c17.2,0,31.2-14,31.2-31.2s-14-31.2-31.2-31.2
		c-0.6,0-20.3,0-20.9,0"/>
	<path id="A53" class="st0" d="M204.6,46.9c0.5,0,20.7,0.1,21.2,0.1c6-0.2,10.7-5.2,10.6-11.2c-0.2-5.8-4.8-10.4-10.6-10.6
		c-0.5,0-20.1,0-20.6,0.1"/>
</g>
</svg>
